<?xml version="1.0" encoding="UTF-8" standalone="no"?>
<svg
   xmlns:dc="http://purl.org/dc/elements/1.1/"
   xmlns:cc="http://creativecommons.org/ns#"
   xmlns:rdf="http://www.w3.org/1999/02/22-rdf-syntax-ns#"
   xmlns:svg="http://www.w3.org/2000/svg"
   xmlns="http://www.w3.org/2000/svg"
   xmlns:sodipodi="http://sodipodi.sourceforge.net/DTD/sodipodi-0.dtd"
   xmlns:inkscape="http://www.inkscape.org/namespaces/inkscape"
   width="163.81673"
   height="147.79715"
   version="1.1"
   id="svg43"
   sodipodi:docname="logo.svg"
   inkscape:version="0.92.3 (2405546, 2018-03-11)">
  <metadata
     id="metadata47">
    <rdf:RDF>
      <cc:Work
         rdf:about="">
        <dc:format>image/svg+xml</dc:format>
        <dc:type
           rdf:resource="http://purl.org/dc/dcmitype/StillImage" />
        <dc:title>theatre masks</dc:title>
      </cc:Work>
    </rdf:RDF>
  </metadata>
  <sodipodi:namedview
     pagecolor="#ffffff"
     bordercolor="#666666"
     borderopacity="1"
     objecttolerance="10"
     gridtolerance="10"
     guidetolerance="10"
     inkscape:pageopacity="0"
     inkscape:pageshadow="2"
     inkscape:window-width="1920"
     inkscape:window-height="1137"
     id="namedview45"
     showgrid="false"
     fit-margin-top="0"
     fit-margin-left="0"
     fit-margin-right="0"
     fit-margin-bottom="0"
     inkscape:zoom="2.7058619"
     inkscape:cx="199.07931"
     inkscape:cy="106.65519"
     inkscape:window-x="-8"
     inkscape:window-y="-8"
     inkscape:window-maximized="1"
     inkscape:current-layer="svg43" />
  <title
     id="title2">theatre masks</title>
  <defs
     id="defs9">
    <radialGradient
       cy="0.51171899"
       cx="0.51171899"
       spreadMethod="pad"
       id="svg_34">
      <stop
         offset="0"
         stop-color="#b77031"
         id="stop4" />
      <stop
         offset="1"
         stop-color="#488fce"
         id="stop6" />
    </radialGradient>
  </defs>
  <g
     id="g1124"
     transform="translate(-36.34364,-41.483812)">
    <path
       style="fill:#463788;fill-opacity:1;stroke:#2c2255;stroke-width:1.34703398;stroke-linecap:round;stroke-linejoin:bevel;stroke-miterlimit:4"
       inkscape:connector-curvature="0"
       d="M 100.52419,83.493092 C 69.994871,73.450706 56.78239,71.279368 47.083859,96.85208 c -9.470819,24.97216 -12.748429,47.04595 -7.703755,63.05116 5.057226,16.04502 17.570999,26.5125 22.189088,28.03161 4.618068,1.51907 22.494201,1.04809 37.250007,-8.47958 14.351011,-9.26628 27.996411,-28.81395 37.721161,-54.45562 9.69856,-25.572681 -6.2966,-31.730538 -36.01617,-41.506558 z"
       id="path4361"
       stroke-miterlimit="4" />
    <path
       style="fill:#ffffff;stroke:#2c2255;stroke-width:1.34703398;stroke-linecap:round;stroke-linejoin:bevel;stroke-miterlimit:4"
       inkscape:connector-curvature="0"
       d="m 92.182395,127.18388 c 1.248248,-1.60609 4.410763,-1.90711 10.455785,0.0896 6.28154,2.07482 18.02586,10.66358 16.77765,12.26967 -0.83449,1.07372 -16.23802,-2.80681 -21.770613,-5.84526 -5.536798,-3.04079 -6.61034,-5.03749 -5.462822,-6.51398 z"
       id="path4373"
       stroke-miterlimit="4" />
    <path
       style="fill:#ffffff;fill-opacity:1;stroke:#f7941e;stroke-width:1;stroke-linecap:butt;stroke-linejoin:miter;stroke-opacity:1"
       d="M 73.533734,77.218112 47.397048,174.78631"
       id="path1063"
       inkscape:connector-curvature="0"
       sodipodi:nodetypes="cc" />
    <path
       sodipodi:nodetypes="cc"
       inkscape:connector-curvature="0"
       id="path1055"
       d="M 72.055462,76.478979 45.918776,174.04718"
       style="fill:#ffffff;stroke:#ffffff;stroke-width:3;stroke-linecap:butt;stroke-linejoin:miter;stroke-opacity:1" />
    <path
       inkscape:connector-curvature="0"
       id="path1065"
       d="M 78.383037,77.820902 51.166068,179.57164"
       style="fill:#ffffff;fill-opacity:1;stroke:#f7941e;stroke-width:1;stroke-linecap:butt;stroke-linejoin:miter;stroke-opacity:1"
       sodipodi:nodetypes="cc" />
    <path
       sodipodi:nodetypes="cc"
       style="fill:#ffffff;stroke:#ffffff;stroke-width:3;stroke-linecap:butt;stroke-linejoin:miter;stroke-opacity:1"
       d="M 76.904765,77.081766 49.687796,178.83251"
       id="path1057"
       inkscape:connector-curvature="0" />
    <path
       style="fill:#ffffff;fill-opacity:1;stroke:#f7941e;stroke-width:1;stroke-linecap:butt;stroke-linejoin:miter;stroke-opacity:1"
       d="M 83.167012,78.685012 55.25846,183.52544"
       id="path1067"
       inkscape:connector-curvature="0"
       sodipodi:nodetypes="cc" />
    <path
       sodipodi:nodetypes="cc"
       inkscape:connector-curvature="0"
       id="path1059"
       d="M 81.688737,77.945878 53.780188,182.78631"
       style="fill:#ffffff;stroke:#ffffff;stroke-width:3;stroke-linecap:butt;stroke-linejoin:miter;stroke-opacity:1" />
    <path
       id="path4416"
       d="m 67.382812,162.11328 c -7.894308,0.23994 -17.519531,6.49414 -17.519531,6.49414 0,0 11.594599,-1.35689 19.085938,1.23438 7.491313,2.59126 16.652344,11.1289 16.652343,11.1289 0,0 -5.922126,-15.51104 -14.082031,-18.29297 -1.270941,-0.44595 -2.674809,-0.60888 -4.136719,-0.56445 z"
       style="opacity:1;fill:#ffffff;stroke:#2c2255;stroke-width:1.34703398;stroke-linecap:round;stroke-linejoin:bevel;stroke-miterlimit:4"
       inkscape:connector-curvature="0" />
    <path
       style="opacity:1;fill:#ffffff;stroke:#2c2255;stroke-width:1.34703398;stroke-linecap:round;stroke-linejoin:bevel;stroke-miterlimit:4"
       inkscape:connector-curvature="0"
       d="m 78.807111,122.28466 c 0.07998,-2.01852 -2.162677,-4.22767 -8.118572,-6.46754 -6.188917,-2.32753 -20.816395,-3.04853 -20.896387,-1.03004 -0.0535,1.34941 14.339482,7.98766 20.576389,9.10406 6.241731,1.11699 8.365012,0.24912 8.43857,-1.60648 z"
       id="path4375"
       stroke-miterlimit="4" />
    <path
       stroke-miterlimit="4"
       id="path1061"
       d="M 100.52419,83.493092 C 69.994871,73.450706 56.78239,71.279368 47.083859,96.85208 c -9.470819,24.97216 -12.748429,47.04595 -7.703755,63.05116 5.057226,16.04502 17.570999,26.5125 22.189088,28.03161 4.618068,1.51907 22.494201,1.04809 37.250007,-8.47958 14.351011,-9.26628 27.996411,-28.81395 37.721161,-54.45562 9.69856,-25.572681 -6.2966,-31.730538 -36.01617,-41.506558 z"
       inkscape:connector-curvature="0"
       style="fill:none;fill-opacity:1;stroke:#2c2255;stroke-width:1.34703398;stroke-linecap:round;stroke-linejoin:bevel;stroke-miterlimit:4" />
  </g>
  <g
     id="g1111"
     transform="translate(-76.34364,-41.483812)">
    <path
       style="fill:#366e9c;fill-opacity:1;stroke:none;stroke-width:1.34703398;stroke-linecap:round;stroke-linejoin:round;stroke-miterlimit:4"
       inkscape:connector-curvature="0"
       d="m 178.17772,50.469541 c -32.6067,9.130673 -46.88221,8.543664 -38.37868,36.549038 8.30385,27.347691 18.18287,50.126591 32.97845,61.139061 14.83239,11.03985 32.2554,12.78368 37.18773,11.40247 4.93233,-1.38115 19.9671,-12.21396 26.29592,-29.17947 6.15519,-16.50007 3.0108,-40.734482 -5.51568,-68.815353 -8.50352,-28.005372 -20.82591,-19.984235 -52.56774,-11.095746 z"
       id="path2849"
       stroke-miterlimit="4" />
    <path
       inkscape:connector-curvature="0"
       id="path1098"
       d="m 211.62014,42.162593 c -4.76242,0.09824 -10.48016,1.566232 -17.49609,3.621092 a 47.8223,66.768295 0 0 1 2.91406,22.7793 47.8223,66.768295 0 0 1 -37.41406,65.082025 c 3.93221,5.93925 8.2711,10.87712 13.15429,14.51172 14.83239,11.03985 32.25517,12.78551 37.1875,11.4043 4.93233,-1.38115 19.96611,-12.21418 26.29493,-29.17969 6.15519,-16.50007 3.01085,-40.735535 -5.51563,-68.816405 -4.51749,-14.87785 -10.11289,-19.588252 -19.125,-19.402342 z"
       style="fill:#ffcc00;stroke:#d4aa00;stroke-width:0.75;stroke-linecap:round;stroke-linejoin:round;stroke-miterlimit:4" />
    <path
       id="path3700"
       d="m 225.44336,117.39648 c 0,-1e-5 -15.30274,10.69197 -23.30664,13.03321 -8.0039,2.34122 -25.4082,1.74804 -25.4082,1.74804 0,0 19.80335,11.30057 28.49609,8.71485 8.71606,-2.50658 20.21875,-23.4961 20.21875,-23.4961 z"
       style="fill:#ffffff;stroke:#d4aa00;stroke-width:1.34703398;stroke-linecap:round;stroke-linejoin:round;stroke-miterlimit:4"
       inkscape:connector-curvature="0" />
    <path
       style="fill:#ffffff;stroke:#d4aa00;stroke-width:1.34703398;stroke-linecap:round;stroke-linejoin:round;stroke-miterlimit:4"
       inkscape:connector-curvature="0"
       d="m 198.1319,87.880931 c -0.61478,-2.08353 1.09782,-4.933053 6.60352,-8.721663 5.7211,-3.936855 20.50483,-8.261267 21.1196,-6.177734 0.41098,1.392888 -12.57053,11.825096 -18.66053,14.511833 -6.09458,2.68875 -8.49744,2.302955 -9.0626,0.387567 z"
       id="path3641"
       stroke-miterlimit="4" />
    <path
       style="opacity:1;fill:#ffffff;stroke:#214478;stroke-width:1.34703398;stroke-linecap:round;stroke-linejoin:round;stroke-miterlimit:4"
       inkscape:connector-curvature="0"
       d="m 183.47618,92.167909 c -0.61481,-2.083525 -3.60322,-3.557938 -10.29217,-3.779507 -6.95062,-0.230199 -21.73435,4.094212 -21.11957,6.177758 0.41097,1.392859 16.99689,3.176266 23.57866,2.156356 6.58682,-1.020704 8.39824,-2.639216 7.83308,-4.554607 z"
       id="path4150"
       stroke-miterlimit="4" />
    <path
       stroke-miterlimit="4"
       id="path1103"
       d="m 178.17772,50.469541 c -32.6067,9.130673 -46.88221,8.543664 -38.37868,36.549038 8.30385,27.347691 18.18287,50.126591 32.97845,61.139061 14.83239,11.03985 32.2554,12.78368 37.18773,11.40247 4.93233,-1.38115 19.9671,-12.21396 26.29592,-29.17947 6.15519,-16.50007 3.0108,-40.734482 -5.51568,-68.815353 -8.50352,-28.005372 -20.82591,-19.984235 -52.56774,-11.095746 z"
       inkscape:connector-curvature="0"
       style="fill:none;fill-opacity:1;stroke:#214478;stroke-width:1.34703398;stroke-linecap:round;stroke-linejoin:round;stroke-miterlimit:4" />
  </g>
</svg>
